<svg width="182.987305" height="353.000000" viewBox="0 0 182.987 353" fill="none" xmlns="http://www.w3.org/2000/svg" xmlns:xlink="http://www.w3.org/1999/xlink">
	<desc>
			Created with Pixso.
	</desc>
	<defs/>
	<path id="delivery_right-image" d="M1.3 88.5C-5.7 147 13.8 181 101.3 214.5C100.85 214.5 100.05 214.42 98.93 214.32L98.7 214.3C84.29 212.98 22.43 207.31 12.3 275C3.5 333.8 60.3 351.5 89.8 353C72.13 323.16 66 271.4 182.8 303C183.03 300.85 183.05 298.36 182.8 295.6L182.8 0C145.3 17 141.3 67.5 117.8 99.5C94.3 131.5 55.3 96.5 52.8 67.5C50.8 44.3 76.63 30.16 89.8 26C68.8 17.5 8.3 30 1.3 88.5Z" fill="#4BC291" fill-opacity="1.000000" fill-rule="evenodd"/>
</svg>
